<svg xmlns="http://www.w3.org/2000/svg" width="375" viewBox="0 0 375 187.5" height="187.5" version="1.0"><defs><clipPath id="a"><path d="M 0.5 0 L 374.5 0 L 374.5 187 L 0.5 187 Z M 0.5 0"/></clipPath></defs><g clip-path="url(#a)" fill="#FFF"><path d="M 0.5 0 L 374.5 0 L 374.5 194.480469 L 0.5 194.480469 Z M 0.5 0"/><path d="M 0.5 0 L 374.5 0 L 374.5 187 L 0.5 187 Z M 0.5 0"/><path d="M 0.5 0 L 374.5 0 L 374.5 187 L 0.5 187 Z M 0.5 0"/></g><path fill="#5E17EB" d="M 128.570312 24.265625 C 129.175781 25.3125 129.847656 26.320312 130.585938 27.28125 C 131.324219 28.242188 132.117188 29.152344 132.976562 30.011719 C 133.832031 30.867188 134.738281 31.667969 135.699219 32.40625 C 136.660156 33.144531 137.664062 33.816406 138.714844 34.421875 C 139.761719 35.027344 140.847656 35.5625 141.964844 36.027344 C 143.082031 36.492188 144.226562 36.878906 145.398438 37.195312 C 146.566406 37.507812 147.75 37.742188 148.953125 37.902344 C 150.152344 38.058594 151.359375 38.140625 152.570312 38.140625 C 173.898438 38.140625 187.230469 61.265625 176.566406 79.765625 C 175.960938 80.816406 175.429688 81.898438 174.964844 83.019531 C 174.5 84.140625 174.113281 85.285156 173.800781 86.457031 C 173.484375 87.628906 173.25 88.816406 173.09375 90.019531 C 172.933594 91.21875 172.855469 92.425781 172.855469 93.640625 C 172.855469 94.851562 172.933594 96.058594 173.09375 97.261719 C 173.25 98.464844 173.484375 99.652344 173.800781 100.824219 C 174.113281 101.992188 174.5 103.140625 174.964844 104.261719 C 175.429688 105.378906 175.960938 106.464844 176.566406 107.515625 C 187.230469 126.015625 173.898438 149.140625 152.570312 149.140625 C 151.359375 149.140625 150.152344 149.21875 148.953125 149.378906 C 147.75 149.535156 146.566406 149.773438 145.398438 150.085938 C 144.226562 150.402344 143.082031 150.789062 141.964844 151.253906 C 140.847656 151.71875 139.761719 152.253906 138.714844 152.859375 C 137.664062 153.464844 136.660156 154.136719 135.699219 154.875 C 134.738281 155.613281 133.832031 156.410156 132.976562 157.269531 C 132.117188 158.125 131.324219 159.035156 130.585938 160 C 129.847656 160.960938 129.175781 161.964844 128.570312 163.015625 C 117.90625 181.515625 91.242188 181.515625 80.578125 163.015625 C 79.972656 161.964844 79.300781 160.960938 78.5625 160 C 77.828125 159.035156 77.03125 158.125 76.175781 157.269531 C 75.316406 156.410156 74.410156 155.613281 73.449219 154.875 C 72.488281 154.136719 71.484375 153.464844 70.433594 152.859375 C 69.386719 152.253906 68.304688 151.71875 67.183594 151.253906 C 66.066406 150.789062 64.921875 150.402344 63.753906 150.085938 C 62.582031 149.773438 61.398438 149.535156 60.195312 149.378906 C 58.996094 149.21875 57.792969 149.140625 56.582031 149.140625 C 35.25 149.140625 21.917969 126.015625 32.582031 107.515625 C 33.1875 106.464844 33.722656 105.378906 34.183594 104.261719 C 34.648438 103.140625 35.035156 101.992188 35.351562 100.824219 C 35.664062 99.652344 35.898438 98.464844 36.058594 97.261719 C 36.214844 96.058594 36.292969 94.851562 36.292969 93.640625 C 36.292969 92.425781 36.214844 91.21875 36.058594 90.019531 C 35.898438 88.816406 35.664062 87.628906 35.351562 86.457031 C 35.035156 85.285156 34.648438 84.140625 34.183594 83.019531 C 33.722656 81.898438 33.1875 80.816406 32.582031 79.765625 C 21.917969 61.265625 35.25 38.140625 56.582031 38.140625 C 57.792969 38.140625 58.996094 38.058594 60.195312 37.902344 C 61.398438 37.742188 62.582031 37.507812 63.753906 37.195312 C 64.921875 36.878906 66.066406 36.492188 67.183594 36.027344 C 68.304688 35.5625 69.386719 35.027344 70.433594 34.421875 C 71.484375 33.816406 72.488281 33.144531 73.449219 32.40625 C 74.410156 31.667969 75.316406 30.867188 76.175781 30.011719 C 77.03125 29.152344 77.828125 28.242188 78.5625 27.28125 C 79.300781 26.320312 79.972656 25.3125 80.578125 24.265625 C 91.242188 5.765625 117.90625 5.765625 128.570312 24.265625 Z M 128.570312 24.265625"/><path fill="#FFF" d="M 126.582031 29.875 C 127.136719 30.839844 127.753906 31.765625 128.429688 32.648438 C 129.109375 33.535156 129.839844 34.371094 130.625 35.15625 C 131.414062 35.945312 132.246094 36.679688 133.128906 37.359375 C 134.011719 38.035156 134.933594 38.65625 135.898438 39.210938 C 136.859375 39.769531 137.855469 40.261719 138.882812 40.6875 C 139.910156 41.113281 140.960938 41.472656 142.035156 41.761719 C 143.109375 42.046875 144.199219 42.265625 145.300781 42.410156 C 146.402344 42.554688 147.511719 42.628906 148.625 42.628906 C 168.21875 42.628906 180.464844 63.886719 170.667969 80.890625 C 170.113281 81.855469 169.621094 82.851562 169.195312 83.882812 C 168.769531 84.910156 168.414062 85.964844 168.125 87.042969 C 167.835938 88.117188 167.621094 89.207031 167.476562 90.3125 C 167.332031 91.417969 167.257812 92.527344 167.257812 93.644531 C 167.257812 94.757812 167.332031 95.867188 167.476562 96.972656 C 167.621094 98.078125 167.835938 99.167969 168.125 100.246094 C 168.414062 101.320312 168.769531 102.375 169.195312 103.40625 C 169.621094 104.433594 170.113281 105.433594 170.667969 106.398438 C 180.464844 123.402344 168.21875 144.65625 148.625 144.65625 C 147.511719 144.65625 146.402344 144.730469 145.300781 144.875 C 144.199219 145.019531 143.109375 145.238281 142.035156 145.527344 C 140.960938 145.816406 139.910156 146.171875 138.882812 146.597656 C 137.855469 147.027344 136.859375 147.519531 135.898438 148.074219 C 134.933594 148.632812 134.011719 149.25 133.128906 149.929688 C 132.246094 150.605469 131.414062 151.339844 130.625 152.128906 C 129.839844 152.917969 129.109375 153.753906 128.429688 154.636719 C 127.753906 155.519531 127.136719 156.445312 126.582031 157.410156 C 116.785156 174.414062 92.292969 174.414062 82.496094 157.410156 C 81.941406 156.445312 81.324219 155.519531 80.644531 154.636719 C 79.96875 153.753906 79.238281 152.917969 78.449219 152.128906 C 77.664062 151.339844 76.832031 150.605469 75.949219 149.929688 C 75.066406 149.25 74.144531 148.632812 73.179688 148.074219 C 72.214844 147.515625 71.222656 147.027344 70.195312 146.597656 C 69.167969 146.171875 68.117188 145.816406 67.042969 145.527344 C 65.964844 145.238281 64.878906 145.019531 63.777344 144.875 C 62.671875 144.730469 61.566406 144.65625 60.453125 144.65625 C 40.859375 144.65625 28.613281 123.402344 38.410156 106.398438 C 38.964844 105.433594 39.457031 104.433594 39.882812 103.40625 C 40.308594 102.375 40.664062 101.320312 40.953125 100.246094 C 41.238281 99.167969 41.457031 98.078125 41.601562 96.972656 C 41.746094 95.867188 41.820312 94.757812 41.820312 93.644531 C 41.820312 92.527344 41.746094 91.417969 41.601562 90.3125 C 41.457031 89.207031 41.238281 88.117188 40.953125 87.042969 C 40.664062 85.964844 40.308594 84.910156 39.882812 83.882812 C 39.457031 82.851562 38.964844 81.855469 38.410156 80.890625 C 28.613281 63.886719 40.859375 42.628906 60.453125 42.628906 C 61.566406 42.628906 62.671875 42.554688 63.777344 42.410156 C 64.878906 42.265625 65.96875 42.046875 67.042969 41.761719 C 68.117188 41.472656 69.167969 41.113281 70.195312 40.6875 C 71.222656 40.261719 72.214844 39.769531 73.179688 39.210938 C 74.144531 38.65625 75.066406 38.035156 75.949219 37.359375 C 76.832031 36.679688 77.664062 35.945312 78.453125 35.15625 C 79.238281 34.371094 79.96875 33.535156 80.644531 32.648438 C 81.324219 31.765625 81.941406 30.839844 82.496094 29.875 C 92.292969 12.871094 116.785156 12.871094 126.582031 29.875 Z M 126.582031 29.875"/><path fill="#5E17EB" d="M 124.671875 35.140625 C 125.179688 36.027344 125.746094 36.875 126.367188 37.683594 C 126.984375 38.496094 127.65625 39.261719 128.378906 39.984375 C 129.097656 40.707031 129.863281 41.378906 130.671875 42 C 131.480469 42.621094 132.324219 43.1875 133.207031 43.699219 C 134.089844 44.210938 135 44.660156 135.941406 45.050781 C 136.882812 45.445312 137.847656 45.769531 138.832031 46.035156 C 139.816406 46.300781 140.8125 46.5 141.824219 46.632812 C 142.835938 46.765625 143.847656 46.832031 144.867188 46.832031 C 162.820312 46.832031 174.042969 66.316406 165.066406 81.902344 C 164.554688 82.789062 164.105469 83.703125 163.714844 84.644531 C 163.328125 85.589844 163 86.554688 162.734375 87.542969 C 162.472656 88.527344 162.273438 89.527344 162.140625 90.542969 C 162.007812 91.554688 161.941406 92.570312 161.941406 93.59375 C 161.941406 94.613281 162.007812 95.632812 162.140625 96.644531 C 162.273438 97.65625 162.472656 98.65625 162.734375 99.644531 C 163 100.632812 163.328125 101.597656 163.714844 102.539062 C 164.105469 103.484375 164.554688 104.398438 165.066406 105.285156 C 174.042969 120.871094 162.820312 140.355469 144.867188 140.355469 C 143.847656 140.355469 142.835938 140.421875 141.824219 140.554688 C 140.8125 140.6875 139.816406 140.886719 138.832031 141.152344 C 137.847656 141.414062 136.882812 141.742188 135.941406 142.132812 C 135 142.523438 134.089844 142.976562 133.207031 143.488281 C 132.324219 143.996094 131.480469 144.5625 130.671875 145.1875 C 129.863281 145.808594 129.097656 146.480469 128.378906 147.203125 C 127.65625 147.925781 126.984375 148.691406 126.367188 149.503906 C 125.746094 150.3125 125.179688 151.160156 124.671875 152.046875 C 115.695312 167.632812 93.253906 167.632812 84.277344 152.046875 C 83.769531 151.160156 83.203125 150.3125 82.582031 149.503906 C 81.960938 148.691406 81.292969 147.925781 80.570312 147.203125 C 79.851562 146.480469 79.085938 145.808594 78.277344 145.1875 C 77.46875 144.5625 76.625 143.996094 75.742188 143.488281 C 74.859375 142.976562 73.949219 142.523438 73.003906 142.132812 C 72.0625 141.742188 71.101562 141.414062 70.117188 141.152344 C 69.132812 140.886719 68.136719 140.6875 67.125 140.554688 C 66.113281 140.421875 65.101562 140.355469 64.082031 140.355469 C 46.128906 140.355469 34.90625 120.871094 43.882812 105.285156 C 44.394531 104.398438 44.84375 103.484375 45.230469 102.539062 C 45.621094 101.597656 45.949219 100.632812 46.210938 99.644531 C 46.476562 98.65625 46.675781 97.65625 46.808594 96.644531 C 46.941406 95.632812 47.007812 94.613281 47.007812 93.59375 C 47.007812 92.570312 46.941406 91.554688 46.808594 90.542969 C 46.675781 89.527344 46.476562 88.527344 46.210938 87.542969 C 45.949219 86.554688 45.621094 85.589844 45.230469 84.644531 C 44.84375 83.703125 44.394531 82.789062 43.882812 81.902344 C 34.90625 66.316406 46.128906 46.832031 64.082031 46.832031 C 65.101562 46.832031 66.113281 46.765625 67.125 46.632812 C 68.136719 46.5 69.132812 46.300781 70.117188 46.035156 C 71.101562 45.769531 72.0625 45.445312 73.007812 45.050781 C 73.949219 44.660156 74.859375 44.210938 75.742188 43.699219 C 76.625 43.1875 77.46875 42.621094 78.277344 42 C 79.085938 41.378906 79.851562 40.707031 80.570312 39.984375 C 81.292969 39.261719 81.960938 38.496094 82.582031 37.683594 C 83.203125 36.875 83.769531 36.027344 84.277344 35.140625 C 93.253906 19.554688 115.695312 19.554688 124.671875 35.140625 Z M 124.671875 35.140625"/><g fill="#FFF"><g><g><path d="M 3.769531 0 L 20.84375 0 C 19.3125 -7.300781 18.253906 -19.429688 18.253906 -29.792969 L 18.253906 -50.871094 L 18.960938 -50.871094 L 28.613281 -20.019531 L 31.675781 -20.019531 L 41.332031 -50.871094 L 42.039062 -50.871094 L 42.039062 -29.792969 C 42.039062 -19.429688 40.863281 -7.300781 39.332031 0 L 56.40625 0 C 54.875 -7.300781 53.699219 -19.429688 53.699219 -29.792969 L 53.699219 -52.636719 C 53.699219 -63 54.875 -75.128906 56.40625 -82.429688 L 40.746094 -82.429688 L 33.5625 -63.117188 C 32.265625 -58.878906 30.96875 -54.640625 30.5 -50.519531 L 29.675781 -50.519531 C 29.203125 -54.640625 28.261719 -58.996094 26.613281 -63.117188 L 19.429688 -82.429688 L 3.769531 -82.429688 C 5.417969 -75.128906 6.476562 -63 6.476562 -52.636719 L 6.476562 -29.792969 C 6.476562 -19.429688 5.417969 -7.300781 3.769531 0 Z M 3.769531 0" transform="translate(74.487 137.222)"/></g></g></g><g fill="#5E17EB"><g><g><path d="M -0.203125 0 L 14.734375 0 C 14.53125 -4.910156 15.042969 -12.382812 16.066406 -19.957031 L 16.578125 -22.921875 L 27.222656 -22.921875 L 27.734375 -20.058594 C 28.859375 -12.382812 29.269531 -4.910156 29.0625 0 L 44.003906 0 C 41.34375 -6.34375 38.582031 -16.886719 37.046875 -25.890625 L 33.15625 -45.742188 C 31.621094 -54.339844 30.597656 -65.085938 31.007812 -71.632812 L 12.792969 -71.632812 C 13.203125 -65.289062 12.179688 -54.75 10.644531 -45.742188 L 6.753906 -25.890625 C 5.21875 -16.886719 2.457031 -6.34375 -0.203125 0 Z M 18.011719 -31.417969 L 19.957031 -40.832031 C 20.875 -45.949219 20.980469 -50.347656 21.492188 -55.464844 L 22.308594 -55.464844 C 22.820312 -50.449219 23.023438 -46.152344 23.945312 -40.832031 L 25.789062 -31.417969 Z M 18.011719 -31.417969" transform="translate(181.934 138.171)"/></g></g></g><g fill="#5E17EB"><g><g><path d="M 3.273438 0 L 18.113281 0 C 16.78125 -6.34375 15.863281 -16.886719 15.863281 -25.890625 L 15.863281 -44.207031 L 16.476562 -44.207031 L 24.867188 -17.398438 L 27.527344 -17.398438 L 35.917969 -44.207031 L 36.535156 -44.207031 L 36.535156 -25.890625 C 36.535156 -16.886719 35.511719 -6.34375 34.179688 0 L 49.019531 0 C 47.6875 -6.34375 46.664062 -16.886719 46.664062 -25.890625 L 46.664062 -45.742188 C 46.664062 -54.75 47.6875 -65.289062 49.019531 -71.632812 L 35.40625 -71.632812 L 29.164062 -54.851562 C 28.039062 -51.167969 26.914062 -47.484375 26.503906 -43.902344 L 25.789062 -43.902344 C 25.378906 -47.484375 24.558594 -51.269531 23.128906 -54.851562 L 16.886719 -71.632812 L 3.273438 -71.632812 C 4.707031 -65.289062 5.628906 -54.75 5.628906 -45.742188 L 5.628906 -25.890625 C 5.628906 -16.886719 4.707031 -6.34375 3.273438 0 Z M 3.273438 0" transform="translate(225.733 138.171)"/></g></g></g><g fill="#5E17EB"><g><g><path d="M 20.363281 1.433594 C 31.109375 1.433594 38.683594 -11.972656 38.683594 -35.917969 C 38.683594 -59.96875 31.109375 -73.066406 20.363281 -73.066406 C 9.414062 -73.066406 1.945312 -59.96875 1.945312 -35.917969 C 1.945312 -11.972656 9.414062 1.433594 20.363281 1.433594 Z M 20.363281 -8.699219 C 15.863281 -8.699219 12.792969 -16.679688 12.792969 -35.917969 C 12.792969 -55.054688 15.863281 -63.039062 20.363281 -63.039062 C 24.664062 -63.039062 27.835938 -55.054688 27.835938 -35.917969 C 27.835938 -16.679688 24.664062 -8.699219 20.363281 -8.699219 Z M 20.363281 -8.699219" transform="translate(278.025 138.171)"/></g></g></g><g fill="#5E17EB"><g><g><path d="M 20.363281 1.433594 C 31.109375 1.433594 38.683594 -11.972656 38.683594 -35.917969 C 38.683594 -59.96875 31.109375 -73.066406 20.363281 -73.066406 C 9.414062 -73.066406 1.945312 -59.96875 1.945312 -35.917969 C 1.945312 -11.972656 9.414062 1.433594 20.363281 1.433594 Z M 20.363281 -8.699219 C 15.863281 -8.699219 12.792969 -16.679688 12.792969 -35.917969 C 12.792969 -55.054688 15.863281 -63.039062 20.363281 -63.039062 C 24.664062 -63.039062 27.835938 -55.054688 27.835938 -35.917969 C 27.835938 -16.679688 24.664062 -8.699219 20.363281 -8.699219 Z M 20.363281 -8.699219" transform="translate(318.55 138.171)"/></g></g></g></svg>