<svg xmlns="http://www.w3.org/2000/svg" width="375" viewBox="0 0 375 187.5" height="187.5" version="1.0"><path fill="#5271FF" d="M 59.800781 70.5 L 101.875 49.460938 L 99.0625 96.417969 Z M 59.800781 70.5"/><path fill="#5271FF" d="M 97.5 45.480469 L 110.214844 45.480469 L 110.214844 84.351562 L 97.5 84.351562 L 97.5 45.480469"/><path fill="#5271FF" d="M 116.25 55.808594 L 125.984375 61.429688 L 116.25 67.050781 Z M 116.25 55.808594"/><path fill="#5271FF" d="M 114.023438 85.085938 L 119.195312 75.105469 L 125.253906 84.570312 Z M 114.023438 85.085938"/><path fill="#5271FF" d="M 128.824219 75.902344 L 120.664062 72.332031 L 127.835938 67.050781 Z M 128.824219 75.902344"/><path fill="#5271FF" d="M 98.203125 42.519531 L 274.679688 42.519531 L 274.679688 50.746094 L 98.203125 50.746094 L 98.203125 42.519531"/><path fill="#5271FF" d="M 126.738281 56.90625 L 115.523438 50.429688 L 126.738281 43.953125 Z M 126.738281 56.90625"/><path fill="#5271FF" d="M 123.335938 153.660156 L 160.628906 124.980469 L 166.820312 171.617188 Z M 123.335938 153.660156"/><path fill="#5271FF" d="M 125.253906 116.527344 L 126.566406 43.242188 L 132.546875 43.347656 L 131.238281 116.636719 L 125.253906 116.527344"/><path fill="#5271FF" d="M 134.800781 72.042969 L 147.515625 72.042969 L 147.515625 84.757812 L 134.800781 84.757812 L 134.800781 72.042969"/><path fill="#5271FF" d="M 135.917969 67.121094 L 141.113281 57.152344 L 147.148438 66.636719 Z M 135.917969 67.121094"/><path fill="#5271FF" d="M 150.046875 126.582031 L 151.464844 47.308594 L 157.449219 47.414062 L 156.03125 126.691406 L 150.046875 126.582031"/><path fill="#5271FF" d="M 273.183594 89.5 L 98.15625 89.5 L 98.15625 83.519531 L 273.183594 83.519531 L 273.183594 89.5"/><path fill="#5271FF" d="M 157.304688 85.085938 L 168.941406 64.933594 L 180.574219 85.085938 Z M 157.304688 85.085938"/><path fill="#5271FF" d="M 182.371094 48.382812 L 175.65625 60.011719 L 168.941406 48.382812 Z M 182.371094 48.382812"/><path fill="#5271FF" d="M 183.75 123.667969 L 185.183594 43.644531 L 191.164062 43.753906 L 189.734375 123.773438 L 183.75 123.667969"/><path fill="#5271FF" d="M 187.382812 48.410156 L 191.121094 48.410156 L 191.121094 84.261719 L 187.382812 84.261719 L 187.382812 48.410156"/><path fill="#5271FF" d="M 193.019531 57.070312 L 205.710938 69.757812 L 195.132812 80.339844 L 193.019531 57.070312"/><path fill="#919191" d="M 248.878906 126.691406 L 93.296875 126.691406 L 93.296875 120.707031 L 248.878906 120.707031 L 248.878906 126.691406"/><path fill="#5271FF" d="M 197.648438 50.582031 L 209.316406 46.574219 L 206.953125 58.679688 Z M 197.648438 50.582031"/><path fill="#5271FF" d="M 199.539062 85.210938 L 207.296875 78.648438 L 209.101562 88.648438 Z M 199.539062 85.210938"/><path fill="#5271FF" d="M 215.976562 62.015625 L 228.691406 62.015625 L 228.691406 78.472656 L 215.976562 78.472656 L 215.976562 62.015625"/><path fill="#5271FF" d="M 265.730469 49.9375 L 255.683594 59.988281 L 245.632812 49.9375 L 265.730469 49.9375"/><path fill="#5271FF" d="M 238.316406 88.285156 L 248.890625 69.96875 L 259.46875 88.285156 Z M 238.316406 88.285156"/><path fill="#5271FF" d="M 252.035156 89.125 L 262.613281 70.808594 L 273.1875 89.125 Z M 252.035156 89.125"/><path fill="#5271FF" d="M 97.5 87.152344 L 282.257812 87.152344 L 282.257812 148.488281 L 97.5 148.488281 L 97.5 87.152344"/><path fill="#5271FF" d="M 205.804688 111.410156 L 207.039062 42.605469 L 213.019531 42.710938 L 211.789062 111.515625 L 205.804688 111.410156"/><path fill="#5271FF" d="M 231.761719 115.125 L 233.035156 44.078125 L 239.015625 44.183594 L 237.746094 115.234375 L 231.761719 115.125"/><path fill="#5271FF" d="M 270.878906 115.726562 L 272.1875 42.480469 L 286.398438 42.734375 L 285.089844 115.980469 L 270.878906 115.726562"/><g fill="#FD6155" fill-opacity=".302"><g><g><path d="M 6.042969 -13.722656 L 8.300781 -28.113281 C 8.644531 -30.3125 10.253906 -31.722656 11.976562 -32.023438 C 13.972656 -32.371094 15.5 -31.261719 15.792969 -29.578125 C 15.867188 -29.148438 15.863281 -28.703125 15.792969 -28.167969 L 13.058594 -12.359375 C 11.855469 -12.796875 10.578125 -12.9375 8.972656 -12.65625 C 7.601562 -12.417969 5.949219 -11.484375 5.398438 -10.945312 C 3.214844 -9.113281 3.011719 -6.335938 3.277344 -4.808594 C 3.816406 -1.714844 7.054688 0.425781 10.539062 -0.179688 C 12.457031 -0.515625 14.5625 -1.648438 16.074219 -3.160156 C 19.039062 -0.246094 25.402344 1.992188 31.980469 0.847656 C 33.742188 0.542969 34.433594 -0.828125 34.226562 -2.003906 C 34.015625 -3.21875 32.90625 -4.273438 31.144531 -3.96875 C 24.484375 -2.808594 21.296875 -5.363281 18.613281 -8.042969 C 18.722656 -8.34375 18.667969 -8.414062 18.738281 -8.707031 L 21.941406 -27.867188 C 22.128906 -28.867188 22.113281 -29.875 21.953125 -30.8125 C 21.148438 -35.433594 16.445312 -37.882812 11.390625 -37.003906 C 7.28125 -36.289062 2.792969 -33.328125 1.960938 -27.898438 L -0.136719 -14.21875 C -0.214844 -13.761719 -0.203125 -13.441406 -0.148438 -13.128906 C 0.144531 -11.445312 1.910156 -10.582031 3.476562 -10.851562 C 4.691406 -11.066406 5.75 -11.933594 6.042969 -13.722656 Z M 10.269531 -5.21875 C 9.484375 -5.082031 8.761719 -5.519531 8.640625 -6.222656 C 8.523438 -6.890625 8.964844 -7.613281 9.824219 -7.761719 C 10.570312 -7.890625 11.316406 -7.539062 12.066406 -6.941406 C 11.707031 -5.992188 11.050781 -5.351562 10.269531 -5.21875 Z M 10.269531 -5.21875" transform="translate(147.06 145.544)"/></g></g></g><g fill="#FD6155" fill-opacity=".302"><g><g><path d="M 20.460938 -15.261719 C 19.519531 -10.257812 17.710938 -7.882812 15.910156 -7.570312 C 15.207031 -7.449219 14.667969 -7.757812 14.570312 -8.304688 C 14.542969 -8.460938 14.542969 -8.703125 14.585938 -8.914062 L 16.96875 -22.804688 C 17.058594 -23.222656 17.035156 -23.582031 16.976562 -23.933594 C 16.703125 -25.5 15.148438 -26.320312 13.738281 -26.074219 C 12.601562 -25.878906 11.542969 -25.007812 11.242188 -23.261719 L 9.027344 -10.488281 C 8.304688 -8.144531 6.941406 -6.007812 5.375 -5.738281 C 4.789062 -5.636719 4.40625 -5.972656 4.304688 -6.558594 C 4.25 -6.871094 4.242188 -7.394531 4.289062 -7.808594 L 6.429688 -20.769531 C 6.511719 -21.226562 6.523438 -21.632812 6.453125 -22.023438 C 6.175781 -23.628906 4.574219 -24.480469 3.125 -24.226562 C 2.03125 -24.035156 0.96875 -23.167969 0.695312 -21.503906 L -1.5625 -7.355469 C -1.675781 -6.609375 -1.667969 -5.882812 -1.554688 -5.214844 C -1 -2.042969 1.957031 -0.339844 5.246094 -0.914062 C 7.597656 -1.324219 9.160156 -2.765625 10.339844 -4.582031 C 11.765625 -3.097656 14.058594 -2.445312 16.40625 -2.855469 C 20.128906 -3.503906 23.996094 -6.558594 25.355469 -15.1875 C 25.394531 -15.433594 25.394531 -15.675781 25.351562 -15.910156 C 25.132812 -17.164062 23.828125 -17.703125 22.617188 -17.492188 C 21.597656 -17.316406 20.636719 -16.582031 20.460938 -15.261719 Z M 20.460938 -15.261719" transform="translate(170.83 141.406)"/></g></g></g><g fill="#FD6155" fill-opacity=".302"><g><g><path d="M 17.894531 -14.492188 C 16.960938 -9.648438 13.167969 -7.09375 9.839844 -6.515625 C 6.980469 -6.015625 4.941406 -7.074219 4.628906 -8.875 C 4.566406 -9.226562 4.542969 -9.585938 4.632812 -10.003906 L 4.816406 -10.804688 C 6.074219 -10.296875 7.566406 -10.074219 9.132812 -10.34375 C 12.695312 -10.964844 15.441406 -13.742188 15.886719 -17.453125 C 15.953125 -18.230469 15.9375 -18.992188 15.824219 -19.660156 C 15.175781 -23.378906 11.742188 -25.726562 7.316406 -24.957031 C 3.832031 -24.351562 0.777344 -21.722656 0.0898438 -17.566406 L -1.054688 -10.46875 C -1.207031 -9.472656 -1.238281 -8.5 -1.082031 -7.597656 C -0.269531 -2.9375 4.621094 -0.804688 10.339844 -1.800781 C 15.78125 -2.746094 21.503906 -6.488281 22.789062 -14.417969 C 22.851562 -14.75 22.84375 -15.03125 22.800781 -15.265625 C 22.589844 -16.480469 21.378906 -16.953125 20.203125 -16.75 C 19.105469 -16.558594 18.035156 -15.769531 17.894531 -14.492188 Z M 8.003906 -20.316406 C 9.097656 -20.507812 9.960938 -19.730469 10.160156 -18.59375 C 10.214844 -18.28125 10.230469 -17.960938 10.164062 -17.625 C 10 -16.265625 8.90625 -15.589844 7.730469 -15.386719 C 6.988281 -15.257812 6.214844 -15.285156 5.613281 -15.5 L 6.027344 -17.996094 C 6.246094 -19.285156 7.101562 -20.160156 8.003906 -20.316406 Z M 8.003906 -20.316406" transform="translate(191.937 137.732)"/></g></g></g><g fill="#FD6155" fill-opacity=".302"><g><g><path d="M 18.863281 -14.703125 C 18.328125 -12.226562 17.234375 -10.382812 15.617188 -9.011719 C 15.609375 -9.535156 15.605469 -10.019531 15.515625 -10.527344 C 15.121094 -12.800781 13.53125 -14.742188 12.117188 -16.390625 C 11.101562 -17.585938 10.085938 -18.78125 9.71875 -19.96875 C 10.730469 -20.628906 11.375 -22.03125 11.171875 -23.207031 C 10.878906 -24.890625 9.3125 -26.234375 7.355469 -25.890625 C 5.867188 -25.632812 4.507812 -24.628906 4.03125 -22.972656 C 3.019531 -19.730469 1.902344 -16.429688 0.847656 -13.21875 C -1.660156 -12.097656 -2.4375 -8.894531 -2 -6.390625 C -1.332031 -2.550781 3.023438 -0.242188 9.957031 -1.449219 C 16.769531 -2.636719 22.429688 -6.285156 23.792969 -14.671875 C 23.84375 -14.84375 23.808594 -15.039062 23.78125 -15.195312 C 23.585938 -16.332031 22.148438 -16.929688 20.894531 -16.710938 C 19.957031 -16.546875 19.097656 -15.914062 18.863281 -14.703125 Z M 6.265625 -13.597656 L 6.488281 -14.402344 C 7.910156 -13.199219 9.175781 -11.484375 9.496094 -9.640625 C 9.816406 -7.800781 9.105469 -6.105469 7.042969 -5.664062 C 5.710938 -5.433594 4.433594 -5.816406 3.828125 -6.757812 C 4.152344 -6.734375 4.464844 -6.789062 4.742188 -6.835938 C 7.011719 -7.230469 8.007812 -9.382812 7.675781 -11.300781 C 7.519531 -12.203125 7.046875 -13.046875 6.265625 -13.597656 Z M 6.265625 -13.597656" transform="translate(210.499 134.501)"/></g></g></g><g fill="#FD6155" fill-opacity=".302"><g><g><path d="M 12.058594 -13.476562 C 11.242188 -8.894531 9.136719 -6.390625 6.863281 -5.996094 C 5.453125 -5.75 4.441406 -6.460938 4.257812 -7.519531 C 4.210938 -7.792969 4.234375 -8.121094 4.265625 -8.410156 L 6.203125 -20.003906 L 8.746094 -20.445312 C 10.746094 -20.792969 11.554688 -22.386719 11.332031 -23.679688 C 11.152344 -24.695312 10.332031 -25.480469 8.84375 -25.222656 L 7.082031 -24.917969 L 8.375 -33.007812 C 8.40625 -33.296875 8.40625 -33.539062 8.363281 -33.773438 C 8.113281 -35.222656 6.890625 -36.21875 5.164062 -35.921875 C 3.875 -35.695312 2.933594 -34.605469 2.703125 -33.152344 L 1.089844 -23.875 L -0.554688 -23.585938 C -2.667969 -23.21875 -3.339844 -21.730469 -3.121094 -20.476562 C -2.929688 -19.382812 -2.101562 -18.558594 -1.042969 -18.742188 L 0.25 -18.964844 L -1.398438 -8.957031 L -1.40625 -8.996094 C -1.554688 -8 -1.5625 -7.113281 -1.417969 -6.289062 C -0.722656 -2.296875 3.25 -0.566406 7.285156 -1.269531 C 12.296875 -2.140625 15.839844 -6.589844 16.953125 -13.402344 C 16.984375 -13.6875 17.015625 -13.976562 16.972656 -14.210938 C 16.769531 -15.386719 15.503906 -15.933594 14.289062 -15.722656 C 13.3125 -15.550781 12.308594 -14.8125 12.058594 -13.476562 Z M 12.058594 -13.476562" transform="translate(230.04 131.1)"/></g></g></g><g fill="#FD6155" fill-opacity=".502"><g><g><path d="M 6.042969 -13.722656 L 8.300781 -28.113281 C 8.644531 -30.3125 10.253906 -31.722656 11.976562 -32.023438 C 13.972656 -32.371094 15.5 -31.261719 15.792969 -29.578125 C 15.867188 -29.148438 15.863281 -28.703125 15.792969 -28.167969 L 13.058594 -12.359375 C 11.855469 -12.796875 10.578125 -12.9375 8.972656 -12.65625 C 7.601562 -12.417969 5.949219 -11.484375 5.398438 -10.945312 C 3.214844 -9.113281 3.011719 -6.335938 3.277344 -4.808594 C 3.816406 -1.714844 7.054688 0.425781 10.539062 -0.179688 C 12.457031 -0.515625 14.5625 -1.648438 16.074219 -3.160156 C 19.039062 -0.246094 25.402344 1.992188 31.980469 0.847656 C 33.742188 0.542969 34.433594 -0.828125 34.226562 -2.003906 C 34.015625 -3.21875 32.90625 -4.273438 31.144531 -3.96875 C 24.484375 -2.808594 21.296875 -5.363281 18.613281 -8.042969 C 18.722656 -8.34375 18.667969 -8.414062 18.738281 -8.707031 L 21.941406 -27.867188 C 22.128906 -28.867188 22.113281 -29.875 21.953125 -30.8125 C 21.148438 -35.433594 16.445312 -37.882812 11.390625 -37.003906 C 7.28125 -36.289062 2.792969 -33.328125 1.960938 -27.898438 L -0.136719 -14.21875 C -0.214844 -13.761719 -0.203125 -13.441406 -0.148438 -13.128906 C 0.144531 -11.445312 1.910156 -10.582031 3.476562 -10.851562 C 4.691406 -11.066406 5.75 -11.933594 6.042969 -13.722656 Z M 10.269531 -5.21875 C 9.484375 -5.082031 8.761719 -5.519531 8.640625 -6.222656 C 8.523438 -6.890625 8.964844 -7.613281 9.824219 -7.761719 C 10.570312 -7.890625 11.316406 -7.539062 12.066406 -6.941406 C 11.707031 -5.992188 11.050781 -5.351562 10.269531 -5.21875 Z M 10.269531 -5.21875" transform="translate(145.203 143.472)"/></g></g></g><g fill="#FD6155" fill-opacity=".502"><g><g><path d="M 20.460938 -15.261719 C 19.519531 -10.257812 17.710938 -7.882812 15.910156 -7.570312 C 15.207031 -7.449219 14.667969 -7.757812 14.570312 -8.304688 C 14.542969 -8.460938 14.542969 -8.703125 14.585938 -8.914062 L 16.96875 -22.804688 C 17.058594 -23.222656 17.035156 -23.582031 16.976562 -23.933594 C 16.703125 -25.5 15.148438 -26.320312 13.738281 -26.074219 C 12.601562 -25.878906 11.542969 -25.007812 11.242188 -23.261719 L 9.027344 -10.488281 C 8.304688 -8.144531 6.941406 -6.007812 5.375 -5.738281 C 4.789062 -5.636719 4.40625 -5.972656 4.304688 -6.558594 C 4.25 -6.871094 4.242188 -7.394531 4.289062 -7.808594 L 6.429688 -20.769531 C 6.511719 -21.226562 6.523438 -21.632812 6.453125 -22.023438 C 6.175781 -23.628906 4.574219 -24.480469 3.125 -24.226562 C 2.03125 -24.035156 0.96875 -23.167969 0.695312 -21.503906 L -1.5625 -7.355469 C -1.675781 -6.609375 -1.667969 -5.882812 -1.554688 -5.214844 C -1 -2.042969 1.957031 -0.339844 5.246094 -0.914062 C 7.597656 -1.324219 9.160156 -2.765625 10.339844 -4.582031 C 11.765625 -3.097656 14.058594 -2.445312 16.40625 -2.855469 C 20.128906 -3.503906 23.996094 -6.558594 25.355469 -15.1875 C 25.394531 -15.433594 25.394531 -15.675781 25.351562 -15.910156 C 25.132812 -17.164062 23.828125 -17.703125 22.617188 -17.492188 C 21.597656 -17.316406 20.636719 -16.582031 20.460938 -15.261719 Z M 20.460938 -15.261719" transform="translate(168.973 139.334)"/></g></g></g><g fill="#FD6155" fill-opacity=".502"><g><g><path d="M 17.894531 -14.492188 C 16.960938 -9.648438 13.167969 -7.09375 9.839844 -6.515625 C 6.980469 -6.015625 4.941406 -7.074219 4.628906 -8.875 C 4.566406 -9.226562 4.542969 -9.585938 4.632812 -10.003906 L 4.816406 -10.804688 C 6.074219 -10.296875 7.566406 -10.074219 9.132812 -10.34375 C 12.695312 -10.964844 15.441406 -13.742188 15.886719 -17.453125 C 15.953125 -18.230469 15.9375 -18.992188 15.824219 -19.660156 C 15.175781 -23.378906 11.742188 -25.726562 7.316406 -24.957031 C 3.832031 -24.351562 0.777344 -21.722656 0.0898438 -17.566406 L -1.054688 -10.46875 C -1.207031 -9.472656 -1.238281 -8.5 -1.082031 -7.597656 C -0.269531 -2.9375 4.621094 -0.804688 10.339844 -1.800781 C 15.78125 -2.746094 21.503906 -6.488281 22.789062 -14.417969 C 22.851562 -14.75 22.84375 -15.03125 22.800781 -15.265625 C 22.589844 -16.480469 21.378906 -16.953125 20.203125 -16.75 C 19.105469 -16.558594 18.035156 -15.769531 17.894531 -14.492188 Z M 8.003906 -20.316406 C 9.097656 -20.507812 9.960938 -19.730469 10.160156 -18.59375 C 10.214844 -18.28125 10.230469 -17.960938 10.164062 -17.625 C 10 -16.265625 8.90625 -15.589844 7.730469 -15.386719 C 6.988281 -15.257812 6.214844 -15.285156 5.613281 -15.5 L 6.027344 -17.996094 C 6.246094 -19.285156 7.101562 -20.160156 8.003906 -20.316406 Z M 8.003906 -20.316406" transform="translate(190.08 135.66)"/></g></g></g><g fill="#FD6155" fill-opacity=".502"><g><g><path d="M 18.863281 -14.703125 C 18.328125 -12.226562 17.234375 -10.382812 15.617188 -9.011719 C 15.609375 -9.535156 15.605469 -10.019531 15.515625 -10.527344 C 15.121094 -12.800781 13.53125 -14.742188 12.117188 -16.390625 C 11.101562 -17.585938 10.085938 -18.78125 9.71875 -19.96875 C 10.730469 -20.628906 11.375 -22.03125 11.171875 -23.207031 C 10.878906 -24.890625 9.3125 -26.234375 7.355469 -25.890625 C 5.867188 -25.632812 4.507812 -24.628906 4.03125 -22.972656 C 3.019531 -19.730469 1.902344 -16.429688 0.847656 -13.21875 C -1.660156 -12.097656 -2.4375 -8.894531 -2 -6.390625 C -1.332031 -2.550781 3.023438 -0.242188 9.957031 -1.449219 C 16.769531 -2.636719 22.429688 -6.285156 23.792969 -14.671875 C 23.84375 -14.84375 23.808594 -15.039062 23.78125 -15.195312 C 23.585938 -16.332031 22.148438 -16.929688 20.894531 -16.710938 C 19.957031 -16.546875 19.097656 -15.914062 18.863281 -14.703125 Z M 6.265625 -13.597656 L 6.488281 -14.402344 C 7.910156 -13.199219 9.175781 -11.484375 9.496094 -9.640625 C 9.816406 -7.800781 9.105469 -6.105469 7.042969 -5.664062 C 5.710938 -5.433594 4.433594 -5.816406 3.828125 -6.757812 C 4.152344 -6.734375 4.464844 -6.789062 4.742188 -6.835938 C 7.011719 -7.230469 8.007812 -9.382812 7.675781 -11.300781 C 7.519531 -12.203125 7.046875 -13.046875 6.265625 -13.597656 Z M 6.265625 -13.597656" transform="translate(208.641 132.43)"/></g></g></g><g fill="#FD6155" fill-opacity=".502"><g><g><path d="M 12.058594 -13.476562 C 11.242188 -8.894531 9.136719 -6.390625 6.863281 -5.996094 C 5.453125 -5.75 4.441406 -6.460938 4.257812 -7.519531 C 4.210938 -7.792969 4.234375 -8.121094 4.265625 -8.410156 L 6.203125 -20.003906 L 8.746094 -20.445312 C 10.746094 -20.792969 11.554688 -22.386719 11.332031 -23.679688 C 11.152344 -24.695312 10.332031 -25.480469 8.84375 -25.222656 L 7.082031 -24.917969 L 8.375 -33.007812 C 8.40625 -33.296875 8.40625 -33.539062 8.363281 -33.773438 C 8.113281 -35.222656 6.890625 -36.21875 5.164062 -35.921875 C 3.875 -35.695312 2.933594 -34.605469 2.703125 -33.152344 L 1.089844 -23.875 L -0.554688 -23.585938 C -2.667969 -23.21875 -3.339844 -21.730469 -3.121094 -20.476562 C -2.929688 -19.382812 -2.101562 -18.558594 -1.042969 -18.742188 L 0.25 -18.964844 L -1.398438 -8.957031 L -1.40625 -8.996094 C -1.554688 -8 -1.5625 -7.113281 -1.417969 -6.289062 C -0.722656 -2.296875 3.25 -0.566406 7.285156 -1.269531 C 12.296875 -2.140625 15.839844 -6.589844 16.953125 -13.402344 C 16.984375 -13.6875 17.015625 -13.976562 16.972656 -14.210938 C 16.769531 -15.386719 15.503906 -15.933594 14.289062 -15.722656 C 13.3125 -15.550781 12.308594 -14.8125 12.058594 -13.476562 Z M 12.058594 -13.476562" transform="translate(228.182 129.028)"/></g></g></g><g fill="#F6F3E4"><g><g><path d="M 6.042969 -13.722656 L 8.300781 -28.113281 C 8.644531 -30.3125 10.253906 -31.722656 11.976562 -32.023438 C 13.972656 -32.371094 15.5 -31.261719 15.792969 -29.578125 C 15.867188 -29.148438 15.863281 -28.703125 15.792969 -28.167969 L 13.058594 -12.359375 C 11.855469 -12.796875 10.578125 -12.9375 8.972656 -12.65625 C 7.601562 -12.417969 5.949219 -11.484375 5.398438 -10.945312 C 3.214844 -9.113281 3.011719 -6.335938 3.277344 -4.808594 C 3.816406 -1.714844 7.054688 0.425781 10.539062 -0.179688 C 12.457031 -0.515625 14.5625 -1.648438 16.074219 -3.160156 C 19.039062 -0.246094 25.402344 1.992188 31.980469 0.847656 C 33.742188 0.542969 34.433594 -0.828125 34.226562 -2.003906 C 34.015625 -3.21875 32.90625 -4.273438 31.144531 -3.96875 C 24.484375 -2.808594 21.296875 -5.363281 18.613281 -8.042969 C 18.722656 -8.34375 18.667969 -8.414062 18.738281 -8.707031 L 21.941406 -27.867188 C 22.128906 -28.867188 22.113281 -29.875 21.953125 -30.8125 C 21.148438 -35.433594 16.445312 -37.882812 11.390625 -37.003906 C 7.28125 -36.289062 2.792969 -33.328125 1.960938 -27.898438 L -0.136719 -14.21875 C -0.214844 -13.761719 -0.203125 -13.441406 -0.148438 -13.128906 C 0.144531 -11.445312 1.910156 -10.582031 3.476562 -10.851562 C 4.691406 -11.066406 5.75 -11.933594 6.042969 -13.722656 Z M 10.269531 -5.21875 C 9.484375 -5.082031 8.761719 -5.519531 8.640625 -6.222656 C 8.523438 -6.890625 8.964844 -7.613281 9.824219 -7.761719 C 10.570312 -7.890625 11.316406 -7.539062 12.066406 -6.941406 C 11.707031 -5.992188 11.050781 -5.351562 10.269531 -5.21875 Z M 10.269531 -5.21875" transform="translate(143.346 141.4)"/></g></g></g><g fill="#F6F3E4"><g><g><path d="M 20.460938 -15.261719 C 19.519531 -10.257812 17.710938 -7.882812 15.910156 -7.570312 C 15.207031 -7.449219 14.667969 -7.757812 14.570312 -8.304688 C 14.542969 -8.460938 14.542969 -8.703125 14.585938 -8.914062 L 16.96875 -22.804688 C 17.058594 -23.222656 17.035156 -23.582031 16.976562 -23.933594 C 16.703125 -25.5 15.148438 -26.320312 13.738281 -26.074219 C 12.601562 -25.878906 11.542969 -25.007812 11.242188 -23.261719 L 9.027344 -10.488281 C 8.304688 -8.144531 6.941406 -6.007812 5.375 -5.738281 C 4.789062 -5.636719 4.40625 -5.972656 4.304688 -6.558594 C 4.25 -6.871094 4.242188 -7.394531 4.289062 -7.808594 L 6.429688 -20.769531 C 6.511719 -21.226562 6.523438 -21.632812 6.453125 -22.023438 C 6.175781 -23.628906 4.574219 -24.480469 3.125 -24.226562 C 2.03125 -24.035156 0.96875 -23.167969 0.695312 -21.503906 L -1.5625 -7.355469 C -1.675781 -6.609375 -1.667969 -5.882812 -1.554688 -5.214844 C -1 -2.042969 1.957031 -0.339844 5.246094 -0.914062 C 7.597656 -1.324219 9.160156 -2.765625 10.339844 -4.582031 C 11.765625 -3.097656 14.058594 -2.445312 16.40625 -2.855469 C 20.128906 -3.503906 23.996094 -6.558594 25.355469 -15.1875 C 25.394531 -15.433594 25.394531 -15.675781 25.351562 -15.910156 C 25.132812 -17.164062 23.828125 -17.703125 22.617188 -17.492188 C 21.597656 -17.316406 20.636719 -16.582031 20.460938 -15.261719 Z M 20.460938 -15.261719" transform="translate(167.116 137.262)"/></g></g></g><g fill="#F6F3E4"><g><g><path d="M 17.894531 -14.492188 C 16.960938 -9.648438 13.167969 -7.09375 9.839844 -6.515625 C 6.980469 -6.015625 4.941406 -7.074219 4.628906 -8.875 C 4.566406 -9.226562 4.542969 -9.585938 4.632812 -10.003906 L 4.816406 -10.804688 C 6.074219 -10.296875 7.566406 -10.074219 9.132812 -10.34375 C 12.695312 -10.964844 15.441406 -13.742188 15.886719 -17.453125 C 15.953125 -18.230469 15.9375 -18.992188 15.824219 -19.660156 C 15.175781 -23.378906 11.742188 -25.726562 7.316406 -24.957031 C 3.832031 -24.351562 0.777344 -21.722656 0.0898438 -17.566406 L -1.054688 -10.46875 C -1.207031 -9.472656 -1.238281 -8.5 -1.082031 -7.597656 C -0.269531 -2.9375 4.621094 -0.804688 10.339844 -1.800781 C 15.78125 -2.746094 21.503906 -6.488281 22.789062 -14.417969 C 22.851562 -14.75 22.84375 -15.03125 22.800781 -15.265625 C 22.589844 -16.480469 21.378906 -16.953125 20.203125 -16.75 C 19.105469 -16.558594 18.035156 -15.769531 17.894531 -14.492188 Z M 8.003906 -20.316406 C 9.097656 -20.507812 9.960938 -19.730469 10.160156 -18.59375 C 10.214844 -18.28125 10.230469 -17.960938 10.164062 -17.625 C 10 -16.265625 8.90625 -15.589844 7.730469 -15.386719 C 6.988281 -15.257812 6.214844 -15.285156 5.613281 -15.5 L 6.027344 -17.996094 C 6.246094 -19.285156 7.101562 -20.160156 8.003906 -20.316406 Z M 8.003906 -20.316406" transform="translate(188.222 133.588)"/></g></g></g><g fill="#F6F3E4"><g><g><path d="M 18.863281 -14.703125 C 18.328125 -12.226562 17.234375 -10.382812 15.617188 -9.011719 C 15.609375 -9.535156 15.605469 -10.019531 15.515625 -10.527344 C 15.121094 -12.800781 13.53125 -14.742188 12.117188 -16.390625 C 11.101562 -17.585938 10.085938 -18.78125 9.71875 -19.96875 C 10.730469 -20.628906 11.375 -22.03125 11.171875 -23.207031 C 10.878906 -24.890625 9.3125 -26.234375 7.355469 -25.890625 C 5.867188 -25.632812 4.507812 -24.628906 4.03125 -22.972656 C 3.019531 -19.730469 1.902344 -16.429688 0.847656 -13.21875 C -1.660156 -12.097656 -2.4375 -8.894531 -2 -6.390625 C -1.332031 -2.550781 3.023438 -0.242188 9.957031 -1.449219 C 16.769531 -2.636719 22.429688 -6.285156 23.792969 -14.671875 C 23.84375 -14.84375 23.808594 -15.039062 23.78125 -15.195312 C 23.585938 -16.332031 22.148438 -16.929688 20.894531 -16.710938 C 19.957031 -16.546875 19.097656 -15.914062 18.863281 -14.703125 Z M 6.265625 -13.597656 L 6.488281 -14.402344 C 7.910156 -13.199219 9.175781 -11.484375 9.496094 -9.640625 C 9.816406 -7.800781 9.105469 -6.105469 7.042969 -5.664062 C 5.710938 -5.433594 4.433594 -5.816406 3.828125 -6.757812 C 4.152344 -6.734375 4.464844 -6.789062 4.742188 -6.835938 C 7.011719 -7.230469 8.007812 -9.382812 7.675781 -11.300781 C 7.519531 -12.203125 7.046875 -13.046875 6.265625 -13.597656 Z M 6.265625 -13.597656" transform="translate(206.784 130.357)"/></g></g></g><g fill="#F6F3E4"><g><g><path d="M 12.058594 -13.476562 C 11.242188 -8.894531 9.136719 -6.390625 6.863281 -5.996094 C 5.453125 -5.75 4.441406 -6.460938 4.257812 -7.519531 C 4.210938 -7.792969 4.234375 -8.121094 4.265625 -8.410156 L 6.203125 -20.003906 L 8.746094 -20.445312 C 10.746094 -20.792969 11.554688 -22.386719 11.332031 -23.679688 C 11.152344 -24.695312 10.332031 -25.480469 8.84375 -25.222656 L 7.082031 -24.917969 L 8.375 -33.007812 C 8.40625 -33.296875 8.40625 -33.539062 8.363281 -33.773438 C 8.113281 -35.222656 6.890625 -36.21875 5.164062 -35.921875 C 3.875 -35.695312 2.933594 -34.605469 2.703125 -33.152344 L 1.089844 -23.875 L -0.554688 -23.585938 C -2.667969 -23.21875 -3.339844 -21.730469 -3.121094 -20.476562 C -2.929688 -19.382812 -2.101562 -18.558594 -1.042969 -18.742188 L 0.25 -18.964844 L -1.398438 -8.957031 L -1.40625 -8.996094 C -1.554688 -8 -1.5625 -7.113281 -1.417969 -6.289062 C -0.722656 -2.296875 3.25 -0.566406 7.285156 -1.269531 C 12.296875 -2.140625 15.839844 -6.589844 16.953125 -13.402344 C 16.984375 -13.6875 17.015625 -13.976562 16.972656 -14.210938 C 16.769531 -15.386719 15.503906 -15.933594 14.289062 -15.722656 C 13.3125 -15.550781 12.308594 -14.8125 12.058594 -13.476562 Z M 12.058594 -13.476562" transform="translate(226.325 126.956)"/></g></g></g><path fill="#5271FF" d="M 61.136719 130.707031 L 98.425781 102.03125 L 104.621094 148.664062 Z M 61.136719 130.707031"/><path fill="#5271FF" d="M 249.015625 136.542969 L 284.679688 109.113281 L 290.601562 153.714844 Z M 249.015625 136.542969"/><path fill="#5271FF" d="M 280.195312 127.207031 L 273.21875 82.761719 L 315.199219 98.941406 Z M 280.195312 127.207031"/><path fill="#5271FF" d="M 192.980469 155.5625 L 230.269531 126.882812 L 236.464844 173.515625 Z M 192.980469 155.5625"/><path fill="#5271FF" d="M 165.332031 15.121094 L 194.859375 29.988281 L 167.222656 48.128906 Z M 165.332031 15.121094"/></svg>